<svg width="36" height="36" viewBox="0 0 36 36" fill="none" xmlns="http://www.w3.org/2000/svg">
<g clip-path="url(#clip0_108_745)">
<path d="M18 36C16.5 36 15.25 35.5156 14.25 34.5469C13.25 33.5781 12.75 32.4063 12.75 31.0313C12.75 30.2501 12.9063 29.5468 13.2188 28.9219C13.5312 28.2969 14.0781 27.6093 14.8594 26.8594C15.6719 26.1094 16.3125 25.4063 16.7813 24.75C17.2812 24.0626 17.5312 23.4688 17.5312 22.9687V21.2812C16.8438 21.125 16.2344 20.8125 15.7031 20.3438C15.2031 19.8437 14.875 19.2499 14.7187 18.5625H13.0312C12.5 18.5625 11.875 18.8125 11.1563 19.3126C10.4375 19.8124 9.75001 20.4219 9.09374 21.1406C8.4375 21.8594 7.78126 22.3906 7.12499 22.7344C6.5 23.0782 5.78126 23.2501 4.96876 23.2501C3.56251 23.2501 2.37499 22.75 1.40625 21.7499C0.468751 20.75 0 19.4999 0 18C0 16.5 0.468751 15.25 1.40625 14.25C2.37499 13.25 3.56251 12.75 4.96876 12.75C6.28124 12.75 7.40624 13.2188 8.34376 14.1562C9.28125 15.0938 10.125 15.8906 10.875 16.5469C11.625 17.2031 12.3438 17.5312 13.0312 17.5312H14.7187C14.875 16.8125 15.2031 16.2187 15.7031 15.75C16.2344 15.25 16.8438 14.9375 17.5312 14.8125V13.125C17.5312 12.3125 16.9062 11.2812 15.6563 10.0313L14.6719 9.04687C13.3906 7.76563 12.75 6.40625 12.75 4.96876C12.75 3.56251 13.25 2.39062 14.25 1.45312C15.2812 0.484375 16.5313 0 18 0C19.4999 0 20.75 0.484375 21.7499 1.45312C22.75 2.42188 23.2501 3.59375 23.2501 4.96876C23.2501 6.56249 22.4687 8.06251 20.9063 9.46876C19.3437 10.9063 18.5625 12.125 18.5625 13.125V14.8125C19.2812 14.9375 19.8751 15.25 20.3438 15.75C20.8438 16.2187 21.1563 16.8125 21.2812 17.5312H22.9687C24.0313 17.5312 25.25 16.7344 26.6251 15.1406C28.0312 13.5469 29.5 12.75 31.0313 12.75C32.4374 12.75 33.6094 13.2656 34.5469 14.2969C35.5156 15.2969 36 16.5313 36 18C36 19.4999 35.5156 20.75 34.5469 21.7499C33.5781 22.75 32.4063 23.2501 31.0313 23.2501C29.7187 23.2501 28.6094 22.7968 27.7031 21.8907C26.797 20.9844 25.9531 20.2032 25.1719 19.5469C24.3905 18.8906 23.6563 18.5625 22.9687 18.5625H21.2812C21.0312 20.0624 20.1251 20.9687 18.5625 21.2812V22.9687C18.5625 23.9062 19.3437 25.1095 20.9063 26.5781C22.4687 28.0469 23.2501 29.5312 23.2501 31.0313C23.2501 32.4374 22.7344 33.6094 21.7031 34.5469C20.7031 35.5156 19.4688 36 18 36Z" fill="#7E43FB"/>
</g>
<defs>
<clipPath id="clip0_108_745">
<rect width="36" height="36" fill="white"/>
</clipPath>
</defs>
</svg>
