<svg width="36" height="36" viewBox="0 0 36 36" fill="none" xmlns="http://www.w3.org/2000/svg">
<g clip-path="url(#clip0_108_790)">
<path fill-rule="evenodd" clip-rule="evenodd" d="M14.7634 23.5411C5.06708 40.153 30.9461 40.153 21.2366 23.5411C36.0219 40.153 40.1533 36.029 23.5402 21.2375C40.1533 30.9341 40.1533 5.05399 23.5402 14.764C40.1533 -0.0276073 36.0275 -4.15342 21.2366 12.4603C30.9328 -4.15342 5.05376 -4.15342 14.7634 12.4603C-0.0276309 -4.15342 -4.15329 -0.0276073 12.4598 14.764C-4.15329 5.06731 -4.15329 30.9474 12.4598 21.2375C-4.15329 36.029 -0.0276309 40.153 14.7634 23.5411ZM18 22.5C20.4852 22.5 22.5 20.4853 22.5 18C22.5 15.5147 20.4852 13.5 18 13.5C15.5147 13.5 13.5 15.5147 13.5 18C13.5 20.4853 15.5147 22.5 18 22.5Z" fill="#00FFFF"/>
</g>
<defs>
<clipPath id="clip0_108_790">
<rect width="36" height="36" fill="white"/>
</clipPath>
</defs>
</svg>
