<svg width="36" height="36" viewBox="0 0 36 36" fill="none" xmlns="http://www.w3.org/2000/svg">
<g clip-path="url(#clip0_108_788)">
<path fill-rule="evenodd" clip-rule="evenodd" d="M22.4818 0.885083L19.044 15.4797L26.9329 2.7288C27.1773 2.3339 27.7259 2.27014 28.0543 2.5985L33.4015 7.94569C33.7298 8.27404 33.6661 8.82275 33.2712 9.06709L20.5204 16.9561L35.1149 13.5182C35.5669 13.4117 36 13.7546 36 14.219V21.7811C36 22.2455 35.5669 22.5884 35.1149 22.4818L20.5204 19.044L33.2712 26.933C33.6661 27.1773 33.7298 27.7259 33.4015 28.0544L28.0543 33.4015C27.7259 33.7298 27.1773 33.6661 26.9329 33.2712L19.044 20.5204L22.4818 35.1149C22.5884 35.5669 22.2453 36 21.7811 36H14.219C13.7546 36 13.4117 35.5669 13.5182 35.1149L16.9561 20.5204L9.06707 33.2712C8.82275 33.6661 8.27402 33.7298 7.94567 33.4015L2.5985 28.0543C2.27014 27.7259 2.3339 27.1773 2.7288 26.9329L15.4796 19.044L0.885085 22.4818C0.433091 22.5884 0 22.2455 0 21.7811V14.219C3.50845e-07 13.7546 0.433089 13.4117 0.885085 13.5182L15.4796 16.9561L2.7288 9.0671C2.3339 8.82277 2.27014 8.27404 2.5985 7.94569L7.94567 2.59852C8.27402 2.27016 8.82275 2.33392 9.06707 2.72882L16.9561 15.4797L13.5182 0.885085C13.4117 0.433091 13.7546 7.0169e-07 14.219 6.61095e-07L21.7811 0C22.2455 0 22.5884 0.433089 22.4818 0.885083ZM18 20.0572C19.1362 20.0572 20.0572 19.1362 20.0572 18C20.0572 16.8639 19.1362 15.9429 18 15.9429C16.8639 15.9429 15.9429 16.8639 15.9429 18C15.9429 19.1362 16.8639 20.0572 18 20.0572Z" fill="#FFCA9A"/>
</g>
<defs>
<clipPath id="clip0_108_788">
<rect width="36" height="36" fill="white"/>
</clipPath>
</defs>
</svg>
