<svg width="20" height="20" viewBox="0 0 20 20" fill="none" xmlns="http://www.w3.org/2000/svg">
<g clip-path="url(#clip0_152_16)">
<path d="M10 20C9.34028 20 8.73264 19.8351 8.17708 19.5052C7.63889 19.1927 7.20486 18.7674 6.875 18.2292C6.5625 17.6736 6.40625 17.066 6.40625 16.4062C6.40625 15.5729 6.59722 14.8785 6.97917 14.3229C7.36111 13.7674 7.95139 13.1163 8.75 12.3698C9.34028 11.8316 9.63542 11.3194 9.63542 10.8333V10.3646H9.16667C8.62847 10.3646 7.89062 10.9028 6.95312 11.9792C6.03299 13.0556 4.91319 13.5937 3.59375 13.5937C2.93403 13.5937 2.32639 13.4375 1.77083 13.125C1.23264 12.7951 0.798611 12.3611 0.46875 11.8229C0.15625 11.2674 0 10.6597 0 10C0 9.34028 0.15625 8.74132 0.46875 8.20312C0.798611 7.64757 1.23264 7.21354 1.77083 6.90104C2.32639 6.57118 2.93403 6.40625 3.59375 6.40625C4.89583 6.40625 6.00694 6.93576 6.92708 7.99479C7.84722 9.05382 8.59375 9.58333 9.16667 9.58333H9.63542V9.16667C9.63542 8.68055 9.34028 8.1684 8.75 7.63021L8.15104 7.08333C7.71701 6.68403 7.31771 6.2066 6.95312 5.65104C6.58854 5.07812 6.40625 4.39236 6.40625 3.59375C6.40625 2.93403 6.5625 2.33507 6.875 1.79688C7.20486 1.24132 7.63889 0.807292 8.17708 0.494791C8.73264 0.16493 9.34028 0 10 0C10.6597 0 11.2587 0.16493 11.7969 0.494791C12.3524 0.824652 12.7865 1.25868 13.099 1.79688C13.4288 2.33507 13.5937 2.93403 13.5937 3.59375C13.5937 4.89583 13.0642 6.00694 12.0052 6.92708C10.9462 7.84722 10.4167 8.59375 10.4167 9.16667V9.58333H10.8333C11.4236 9.58333 12.1701 9.05382 13.0729 7.99479C13.9583 6.93576 15.0694 6.40625 16.4063 6.40625C17.066 6.40625 17.6649 6.57118 18.2031 6.90104C18.7587 7.21354 19.1927 7.63889 19.5052 8.17708C19.8351 8.71528 20 9.32292 20 10C20 10.6597 19.8351 11.2674 19.5052 11.8229C19.1927 12.3611 18.7587 12.7951 18.2031 13.125C17.6649 13.4375 17.066 13.5937 16.4063 13.5937C15.5903 13.5937 14.8872 13.3941 14.2969 12.9948C13.724 12.5955 13.0816 12.0139 12.3698 11.25C11.8316 10.6597 11.3194 10.3646 10.8333 10.3646H10.4167V10.8333C10.4167 11.4757 10.9462 12.2222 12.0052 13.0729C13.0642 13.9236 13.5937 15.0347 13.5937 16.4062C13.5937 17.066 13.4288 17.6736 13.099 18.2292C12.7865 18.7674 12.3611 19.1927 11.8229 19.5052C11.2847 19.8351 10.6771 20 10 20Z" fill="white"/>
</g>
<defs>
<clipPath id="clip0_152_16">
<rect width="20" height="20" fill="white"/>
</clipPath>
</defs>
</svg>
