<svg width="20" height="20" viewBox="0 0 20 20" fill="none" xmlns="http://www.w3.org/2000/svg">
<g clip-path="url(#clip0_111_1386)">
<path fill-rule="evenodd" clip-rule="evenodd" d="M0 15.8405C4.61571 14.3817 5.61862 15.3845 4.15975 20C6.85533 15.3845 13.1447 15.3845 15.8403 20C14.3824 15.3845 15.3854 14.3817 20 15.8405C15.3854 13.145 15.3854 6.85603 20 4.16059C15.3854 5.61832 14.3824 4.61547 15.8403 0C13.1447 4.61547 6.85533 4.61547 4.15975 0C5.61862 4.61547 4.61571 5.61832 0 4.16059C4.61571 6.85603 4.61571 13.145 0 15.8405ZM10 13.7C12.0435 13.7 13.7 12.0435 13.7 10C13.7 7.95655 12.0435 6.3 10 6.3C7.95655 6.3 6.3 7.95655 6.3 10C6.3 12.0435 7.95655 13.7 10 13.7Z" fill="white"/>
</g>
<defs>
<clipPath id="clip0_111_1386">
<rect width="20" height="20" fill="white"/>
</clipPath>
</defs>
</svg>
