<svg width="200" height="73" viewBox="0 0 200 73" fill="none" xmlns="http://www.w3.org/2000/svg">
<g opacity="0.6">
<g opacity="0.4">
<path d="M44.8007 51.609C47.0829 51.609 49.0527 51.1471 50.71 50.2234C52.3945 49.2996 53.6986 47.9955 54.6224 46.311C55.5462 44.5993 56.0081 42.5888 56.0081 40.2794V21.3694H49.6912V32.4953H49.5689C48.944 31.6259 48.1017 30.9467 47.0421 30.4576C46.0097 29.9686 44.8686 29.724 43.6188 29.724C41.6626 29.724 39.9237 30.1723 38.4023 31.0689C36.9079 31.9655 35.7261 33.2153 34.8566 34.8183C34.0144 36.3941 33.5933 38.2281 33.5933 40.3201C33.5933 42.4937 34.0416 44.4363 34.9381 46.148C35.8347 47.8596 37.1117 49.2045 38.769 50.1826C40.4535 51.1335 42.4641 51.609 44.8007 51.609ZM44.8007 46.148C43.3607 46.148 42.206 45.6317 41.3366 44.5993C40.4671 43.5397 40.0324 42.2356 40.0324 40.6869C40.0324 39.1654 40.4671 37.8884 41.3366 36.856C42.206 35.7964 43.3607 35.2666 44.8007 35.2666C46.2678 35.2666 47.4225 35.7964 48.2648 36.856C49.1342 37.8884 49.5689 39.1654 49.5689 40.6869C49.5689 42.2356 49.1342 43.5397 48.2648 44.5993C47.4225 45.6317 46.2678 46.148 44.8007 46.148Z" fill="white"/>
<path d="M70.9932 51.609C68.8468 51.609 66.9857 51.2015 65.4098 50.3864C63.8612 49.5441 62.6657 48.4166 61.8235 47.0038C60.9812 45.5638 60.5601 43.9744 60.5601 42.2356V30.2131H66.877V42.0725C66.877 43.1593 67.2574 44.1102 68.0181 44.9253C68.806 45.7132 69.7841 46.1072 70.9524 46.1072C72.0935 46.1072 73.0445 45.7132 73.8052 44.9253C74.5931 44.1102 74.9871 43.1593 74.9871 42.0725V30.2131H81.304V42.2356C81.304 43.9744 80.8964 45.5638 80.0813 47.0038C79.2663 48.4166 78.0844 49.5441 76.5357 50.3864C74.9871 51.2015 73.1395 51.609 70.9932 51.609Z" fill="white"/>
<path d="M86.0314 51.12V21.3694H92.3483V51.12H86.0314Z" fill="white"/>
<path d="M105.411 51.609C103.537 51.609 101.893 51.1335 100.48 50.1826C99.0944 49.2317 98.0077 47.9547 97.2197 46.3517C96.4318 44.7216 96.0379 42.8876 96.0379 40.8499C96.0379 38.7307 96.4862 36.8424 97.3828 35.1851C98.3065 33.5006 99.6106 32.1693 101.295 31.1912C103.007 30.2131 105.031 29.724 107.368 29.724C109.704 29.724 111.687 30.2131 113.318 31.1912C114.975 32.1693 116.238 33.487 117.108 35.1443C118.004 36.8017 118.453 38.6628 118.453 40.7277V51.12H112.258V47.7781H112.095C111.497 48.8649 110.669 49.7751 109.609 50.5086C108.549 51.2422 107.15 51.609 105.411 51.609ZM107.286 46.148C108.726 46.148 109.867 45.6317 110.709 44.5993C111.579 43.5397 112.013 42.222 112.013 40.6461C112.013 39.1518 111.579 37.8884 110.709 36.856C109.867 35.7964 108.726 35.2666 107.286 35.2666C105.792 35.2666 104.61 35.7964 103.74 36.856C102.898 37.8884 102.477 39.1518 102.477 40.6461C102.477 42.1948 102.898 43.4989 103.74 44.5585C104.61 45.6181 105.792 46.148 107.286 46.148Z" fill="white"/>
<path d="M123.124 51.12V21.3694H129.441V51.12H123.124Z" fill="white"/>
<path d="M134.109 51.12V30.2131H140.466V51.12H134.109ZM137.287 27.8493C136.282 27.8493 135.413 27.4825 134.679 26.749C133.946 26.0154 133.579 25.146 133.579 24.1407C133.579 23.1083 133.946 22.2253 134.679 21.4917C135.413 20.7581 136.282 20.3913 137.287 20.3913C138.32 20.3913 139.189 20.7581 139.896 21.4917C140.629 22.2253 140.996 23.1083 140.996 24.1407C140.996 25.146 140.629 26.0154 139.896 26.749C139.189 27.4825 138.32 27.8493 137.287 27.8493Z" fill="white"/>
<path d="M143.544 51.12L149.902 41.991C148.245 41.1488 146.981 40.0348 146.112 38.6492C145.243 37.2364 144.808 35.647 144.808 33.881V30.2131H151.125V33.5549C151.125 34.533 151.396 35.3889 151.94 36.1224C152.51 36.8288 153.217 37.3043 154.059 37.5488L158.868 30.2131H166L159.968 38.9752C161.816 39.736 163.229 40.8635 164.207 42.3578C165.212 43.8521 165.715 45.5366 165.715 47.4113V51.12H159.357V47.6151C159.357 46.5283 158.99 45.6046 158.257 44.8438C157.523 44.0559 156.654 43.6076 155.648 43.4989L150.636 51.12H143.544Z" fill="white"/>
</g>
</g>
</svg>
