<svg width="100" height="100" viewBox="0 0 100 100" fill="none" xmlns="http://www.w3.org/2000/svg">
<g clip-path="url(#clip0_111_1246)">
<path d="M39.7521 81.9881C45.6849 81.9881 50.4999 77.1731 50.4999 71.2403V60.4924H39.7521C33.8193 60.4924 29.0042 65.3075 29.0042 71.2403C29.0042 77.1731 33.8193 81.9881 39.7521 81.9881Z" fill="#0ACF83"/>
<path d="M29.0042 49.7444C29.0042 43.8116 33.8193 38.9966 39.7521 38.9966H50.4999V60.4923H39.7521C33.8193 60.4923 29.0042 55.6772 29.0042 49.7444Z" fill="#A259FF"/>
<path d="M29.0044 28.2487C29.0044 22.3159 33.8194 17.5009 39.7522 17.5009H50.5001V38.9966H39.7522C33.8194 38.9966 29.0044 34.1815 29.0044 28.2487Z" fill="#F24E1E"/>
<path d="M50.5 17.5009H61.2478C67.1807 17.5009 71.9957 22.3159 71.9957 28.2487C71.9957 34.1815 67.1807 38.9966 61.2478 38.9966H50.5V17.5009Z" fill="#FF7262"/>
<path d="M71.9957 49.7444C71.9957 55.6772 67.1807 60.4923 61.2478 60.4923C55.315 60.4923 50.5 55.6772 50.5 49.7444C50.5 43.8116 55.315 38.9966 61.2478 38.9966C67.1807 38.9966 71.9957 43.8116 71.9957 49.7444Z" fill="#1ABCFE"/>
</g>
<defs>
<clipPath id="clip0_111_1246">
<rect width="43" height="64.4871" fill="white" transform="translate(29 17.5009)"/>
</clipPath>
</defs>
</svg>
