<svg width="200" height="73" viewBox="0 0 200 73" fill="none" xmlns="http://www.w3.org/2000/svg">
<g opacity="0.6" clip-path="url(#clip0_108_827)">
<path d="M87.0258 27.4442V50.5993H81.3854V41.0667H72.6114V50.5993H66.971V27.4442H72.6114V36.5149H81.3854V27.4442H87.0258Z" fill="#787878"/>
<path d="M92.6173 30.2807C91.6277 30.2807 90.8141 29.9949 90.1766 29.4232C89.5608 28.8294 89.2529 28.1038 89.2529 27.2462C89.2529 26.3666 89.5608 25.6409 90.1766 25.0692C90.8141 24.4755 91.6277 24.1786 92.6173 24.1786C93.5848 24.1786 94.3767 24.4755 94.9921 25.0692C95.63 25.6409 95.9488 26.3666 95.9488 27.2462C95.9488 28.1038 95.63 28.8294 94.9921 29.4232C94.3767 29.9949 93.5848 30.2807 92.6173 30.2807ZM95.421 32.1939V50.5992H89.7806V32.1939H95.421Z" fill="#787878"/>
<path d="M108.446 45.817V50.5995H105.576C103.531 50.5995 101.937 50.1047 100.794 49.1155C99.6501 48.1037 99.0785 46.4658 99.0785 44.2007V36.878H96.8356V32.1942H99.0785V27.7083H104.719V32.1942H108.413V36.878H104.719V44.2666C104.719 44.8165 104.851 45.212 105.114 45.454C105.379 45.696 105.818 45.817 106.434 45.817H108.446Z" fill="#787878"/>
<path d="M127.619 41.0996C127.619 41.6274 127.586 42.1773 127.52 42.7488H114.755C114.843 43.8924 115.206 44.7719 115.844 45.3877C116.503 45.9814 117.306 46.2785 118.251 46.2785C119.659 46.2785 120.637 45.6844 121.187 44.497H127.19C126.882 45.7065 126.322 46.795 125.508 47.7625C124.717 48.7301 123.716 49.489 122.507 50.0385C121.297 50.5884 119.945 50.8633 118.45 50.8633C116.646 50.8633 115.041 50.4782 113.634 49.7089C112.226 48.9391 111.127 47.8397 110.335 46.4103C109.544 44.981 109.148 43.3096 109.148 41.3966C109.148 39.4833 109.533 37.8122 110.302 36.3829C111.094 34.9536 112.193 33.8541 113.601 33.0844C115.008 32.3148 116.624 31.93 118.45 31.93C120.231 31.93 121.814 32.3038 123.199 33.0515C124.585 33.7991 125.662 34.8656 126.432 36.251C127.223 37.6363 127.619 39.2526 127.619 41.0996ZM121.847 39.6155C121.847 38.6478 121.517 37.8782 120.857 37.3064C120.198 36.7347 119.373 36.4489 118.384 36.4489C117.438 36.4489 116.635 36.7237 115.975 37.2735C115.338 37.8232 114.942 38.6039 114.788 39.6155H121.847Z" fill="#787878"/>
<path d="M128.153 41.3966C128.153 39.4833 128.538 37.8122 129.308 36.3829C130.099 34.9536 131.188 33.8541 132.573 33.0844C133.981 32.3148 135.586 31.93 137.389 31.93C139.698 31.93 141.622 32.5347 143.161 33.7441C144.723 34.9536 145.745 36.6578 146.229 38.8568H140.226C139.72 37.4494 138.742 36.7457 137.29 36.7457C136.257 36.7457 135.432 37.1525 134.816 37.9662C134.201 38.7578 133.893 39.9013 133.893 41.3966C133.893 42.892 134.201 44.0464 134.816 44.86C135.432 45.6514 136.257 46.0474 137.29 46.0474C138.742 46.0474 139.72 45.3439 140.226 43.9362H146.229C145.745 46.0916 144.723 47.7847 143.161 49.0159C141.6 50.2475 139.676 50.8633 137.389 50.8633C135.586 50.8633 133.981 50.4782 132.573 49.7089C131.188 48.9391 130.099 47.8397 129.308 46.4103C128.538 44.981 128.153 43.3096 128.153 41.3966Z" fill="#787878"/>
<path d="M159.239 31.9959C161.35 31.9959 163.044 32.6995 164.319 34.1068C165.594 35.4922 166.232 37.4053 166.232 39.8462V50.5991H160.625V40.6047C160.625 39.3735 160.306 38.4169 159.668 37.7352C159.03 37.0535 158.173 36.7127 157.095 36.7127C156.018 36.7127 155.16 37.0535 154.523 37.7352C153.885 38.4169 153.566 39.3735 153.566 40.6047V50.5991H147.926V26.1905H153.566V34.6676C154.138 33.854 154.918 33.2053 155.908 32.7215C156.898 32.2377 158.008 31.9959 159.239 31.9959Z" fill="#787878"/>
<path d="M37.7682 38.4958V18.4737H44.4437V28.766C45.6087 28.3163 46.8749 28.0697 48.1986 28.0697C53.9592 28.0697 58.6289 32.7396 58.6289 38.5001V50.5993H51.9536V38.5001C51.9536 36.4264 50.2724 34.7452 48.1986 34.7452C46.1257 34.7452 44.4451 36.4249 44.4437 38.4974C44.4437 38.4983 44.4437 38.4992 44.4437 38.5001V50.5993H37.7682V38.5001C37.7682 38.4987 37.7682 38.4973 37.7682 38.4958Z" fill="#787878"/>
<path d="M51.9535 25.149V18.4736H58.6288V25.149H51.9535Z" fill="#787878"/>
</g>
<defs>
<clipPath id="clip0_108_827">
<rect width="200" height="72.3926" fill="white"/>
</clipPath>
</defs>
</svg>
