<svg width="171" height="41" viewBox="0 0 171 41" fill="none" xmlns="http://www.w3.org/2000/svg">
<path d="M9.82484 26.7875L15.2282 32.1877C15.4175 32.3769 15.6748 32.4823 15.9424 32.4804L28.8735 32.3889C29.7611 32.3826 30.2013 31.3094 29.5735 30.682L24.3627 25.4743C24.1771 25.2888 23.9259 25.1836 23.6633 25.1816L10.5396 25.0806C9.64484 25.0737 9.192 26.155 9.82484 26.7875Z" fill="white"/>
<path d="M26.7929 9.81948L32.1963 15.2197C32.3856 15.4088 32.4911 15.666 32.4893 15.9335L32.4017 28.8608C32.3956 29.7482 31.3222 30.1885 30.6944 29.5611L25.4837 24.3535C25.298 24.1679 25.1928 23.9168 25.1907 23.6543L25.0857 10.5346C25.0785 9.64005 26.1601 9.18702 26.7929 9.81948Z" fill="white"/>
<path d="M14.6919 16.2727L9.36193 10.9459C8.73708 10.3214 7.66844 10.7544 7.65479 11.6376L7.48952 22.3356C7.48109 22.8808 7.91117 23.3322 8.45628 23.3503L13.7717 23.5271C14.3241 23.5455 14.7867 23.1125 14.8046 22.5602L14.9844 17.0122C14.9933 16.7358 14.8874 16.4681 14.6919 16.2727Z" fill="white"/>
<path d="M15.8011 15.1635L10.4712 9.83677C9.84635 9.21229 10.2791 8.14384 11.1626 8.12993L21.8637 7.96152C22.409 7.95294 22.8607 8.38275 22.879 8.9277L23.0575 14.2415C23.076 14.7937 22.643 15.2563 22.0906 15.2744L16.5409 15.4557C16.2645 15.4648 15.9967 15.359 15.8011 15.1635Z" fill="white"/>
<path d="M54.0909 17.1555C53.9716 16.7407 53.804 16.3743 53.5881 16.0561C53.3722 15.7322 53.108 15.4595 52.7955 15.2379C52.4886 15.0106 52.1364 14.8373 51.7386 14.718C51.3466 14.5987 50.9119 14.539 50.4347 14.539C49.5426 14.539 48.7585 14.7606 48.0824 15.2038C47.4119 15.647 46.8892 16.2919 46.5142 17.1385C46.1392 17.9794 45.9517 19.0078 45.9517 20.2237C45.9517 21.4396 46.1364 22.4737 46.5057 23.326C46.875 24.1782 47.3977 24.8288 48.0739 25.2777C48.75 25.7209 49.5483 25.9424 50.4688 25.9424C51.304 25.9424 52.017 25.7947 52.608 25.4993C53.2045 25.1981 53.6591 24.7748 53.9716 24.2294C54.2898 23.6839 54.4489 23.039 54.4489 22.2947L55.1989 22.4055H50.6989V19.6271H58.0028V21.826C58.0028 23.3601 57.679 24.6782 57.0312 25.7805C56.3835 26.8771 55.4915 27.7237 54.3551 28.3203C53.2188 28.9112 51.9176 29.2067 50.4517 29.2067C48.8153 29.2067 47.3778 28.8459 46.1392 28.1243C44.9006 27.397 43.9347 26.3657 43.2415 25.0305C42.554 23.6896 42.2102 22.0987 42.2102 20.2578C42.2102 18.843 42.4148 17.5817 42.8239 16.4737C43.2386 15.3601 43.8182 14.4169 44.5625 13.6442C45.3068 12.8714 46.1733 12.2834 47.1619 11.8799C48.1506 11.4765 49.2216 11.2748 50.375 11.2748C51.3636 11.2748 52.2841 11.4197 53.1364 11.7095C53.9886 11.9936 54.7443 12.397 55.4034 12.9197C56.0682 13.4424 56.6108 14.0646 57.0312 14.7862C57.4517 15.5021 57.7216 16.2919 57.8409 17.1555H54.0909ZM66.6726 29.2237C65.326 29.2237 64.1669 28.951 63.1953 28.4055C62.2294 27.8544 61.4851 27.076 60.9624 26.0703C60.4396 25.0589 60.1783 23.8629 60.1783 22.4822C60.1783 21.1356 60.4396 19.9538 60.9624 18.9368C61.4851 17.9197 62.2209 17.1271 63.1697 16.5589C64.1243 15.9907 65.2436 15.7067 66.5277 15.7067C67.3913 15.7067 68.1953 15.8459 68.9396 16.1243C69.6896 16.397 70.343 16.8089 70.8999 17.3601C71.4624 17.9112 71.8999 18.6044 72.2124 19.4396C72.5249 20.2692 72.6811 21.2407 72.6811 22.3544V23.3515H61.6271V21.1015H69.2635C69.2635 20.5788 69.1499 20.1157 68.9226 19.7123C68.6953 19.3089 68.38 18.9936 67.9766 18.7663C67.5788 18.5334 67.1158 18.4169 66.5874 18.4169C66.0362 18.4169 65.5476 18.5447 65.1214 18.8004C64.701 19.0504 64.3714 19.3885 64.1328 19.8146C63.8942 20.2351 63.772 20.7038 63.7663 21.2209V23.3601C63.7663 24.0078 63.8857 24.5674 64.1243 25.039C64.3686 25.5106 64.7124 25.8743 65.1555 26.1299C65.5987 26.3856 66.1243 26.5135 66.7322 26.5135C67.1357 26.5135 67.505 26.4567 67.8402 26.343C68.1754 26.2294 68.4624 26.0589 68.701 25.8317C68.9396 25.6044 69.1214 25.326 69.2464 24.9964L72.6044 25.218C72.4339 26.0248 72.0845 26.7294 71.5561 27.3317C71.0334 27.9282 70.3572 28.3942 69.5277 28.7294C68.7038 29.0589 67.7521 29.2237 66.6726 29.2237ZM80.9652 29.2237C79.6413 29.2237 78.4964 28.9424 77.5305 28.3799C76.5703 27.8118 75.8288 27.022 75.3061 26.0106C74.7834 24.9936 74.522 23.8146 74.522 22.4737C74.522 21.1214 74.7834 19.9396 75.3061 18.9282C75.8288 17.9112 76.5703 17.1214 77.5305 16.5589C78.4964 15.9907 79.6413 15.7067 80.9652 15.7067C82.2891 15.7067 83.4311 15.9907 84.3913 16.5589C85.3572 17.1214 86.1016 17.9112 86.6243 18.9282C87.147 19.9396 87.4084 21.1214 87.4084 22.4737C87.4084 23.8146 87.147 24.9936 86.6243 26.0106C86.1016 27.022 85.3572 27.8118 84.3913 28.3799C83.4311 28.9424 82.2891 29.2237 80.9652 29.2237ZM80.9822 26.4112C81.5845 26.4112 82.0874 26.2407 82.4908 25.8998C82.8942 25.5532 83.1982 25.0817 83.4027 24.4851C83.6129 23.8885 83.718 23.2095 83.718 22.4481C83.718 21.6868 83.6129 21.0078 83.4027 20.4112C83.1982 19.8146 82.8942 19.343 82.4908 18.9964C82.0874 18.6498 81.5845 18.4765 80.9822 18.4765C80.3743 18.4765 79.8629 18.6498 79.4482 18.9964C79.0391 19.343 78.7294 19.8146 78.5192 20.4112C78.3146 21.0078 78.2124 21.6868 78.2124 22.4481C78.2124 23.2095 78.3146 23.8885 78.5192 24.4851C78.7294 25.0817 79.0391 25.5532 79.4482 25.8998C79.8629 26.2407 80.3743 26.4112 80.9822 26.4112ZM89.7692 28.968V15.8771H93.2891V18.1612H93.4254C93.6641 17.3487 94.0646 16.7351 94.6271 16.3203C95.1896 15.8998 95.8374 15.6896 96.5703 15.6896C96.7521 15.6896 96.9482 15.701 97.1584 15.7237C97.3686 15.7464 97.5533 15.7777 97.7124 15.8174V19.039C97.5419 18.9879 97.3061 18.9424 97.005 18.9027C96.7038 18.8629 96.4283 18.843 96.1783 18.843C95.6442 18.843 95.1669 18.9595 94.7464 19.1924C94.3317 19.4197 94.0021 19.7379 93.7578 20.147C93.5192 20.5561 93.3999 21.0277 93.3999 21.5618V28.968H89.7692ZM104.878 34.1498C103.702 34.1498 102.693 33.9879 101.852 33.664C101.017 33.3459 100.352 32.9112 99.858 32.3601C99.3636 31.8089 99.0426 31.1896 98.8949 30.5021L102.253 30.0504C102.355 30.3118 102.517 30.5561 102.739 30.7834C102.96 31.0106 103.253 31.1924 103.616 31.3288C103.986 31.4709 104.435 31.5419 104.963 31.5419C105.753 31.5419 106.403 31.3487 106.915 30.9623C107.432 30.5817 107.69 29.9424 107.69 29.0447V26.6498H107.537C107.378 27.0135 107.139 27.3572 106.821 27.6811C106.503 28.0049 106.094 28.2692 105.594 28.4737C105.094 28.6782 104.497 28.7805 103.804 28.7805C102.821 28.7805 101.926 28.5532 101.119 28.0987C100.318 27.6385 99.679 26.9368 99.2017 25.9936C98.7301 25.0447 98.4943 23.8459 98.4943 22.397C98.4943 20.914 98.7358 19.6754 99.2188 18.6811C99.7017 17.6868 100.344 16.9424 101.145 16.4481C101.952 15.9538 102.835 15.7067 103.795 15.7067C104.528 15.7067 105.142 15.8317 105.636 16.0817C106.131 16.326 106.528 16.6328 106.83 17.0021C107.136 17.3657 107.372 17.7237 107.537 18.076H107.673V15.8771H111.278V29.0959C111.278 30.2095 111.006 31.1413 110.46 31.8913C109.915 32.6413 109.159 33.2038 108.193 33.5788C107.233 33.9595 106.128 34.1498 104.878 34.1498ZM104.955 26.0532C105.54 26.0532 106.034 25.9084 106.438 25.6186C106.847 25.3231 107.159 24.9027 107.375 24.3572C107.597 23.8061 107.707 23.147 107.707 22.3799C107.707 21.6129 107.599 20.9481 107.384 20.3856C107.168 19.8174 106.855 19.3771 106.446 19.0646C106.037 18.7521 105.54 18.5959 104.955 18.5959C104.358 18.5959 103.855 18.7578 103.446 19.0817C103.037 19.3998 102.727 19.843 102.517 20.4112C102.307 20.9794 102.202 21.6356 102.202 22.3799C102.202 23.1356 102.307 23.789 102.517 24.3402C102.733 24.8856 103.043 25.3089 103.446 25.6101C103.855 25.9055 104.358 26.0532 104.955 26.0532ZM120.134 29.2237C118.787 29.2237 117.628 28.951 116.656 28.4055C115.69 27.8544 114.946 27.076 114.423 26.0703C113.901 25.0589 113.639 23.8629 113.639 22.4822C113.639 21.1356 113.901 19.9538 114.423 18.9368C114.946 17.9197 115.682 17.1271 116.631 16.5589C117.585 15.9907 118.705 15.7067 119.989 15.7067C120.852 15.7067 121.656 15.8459 122.401 16.1243C123.151 16.397 123.804 16.8089 124.361 17.3601C124.923 17.9112 125.361 18.6044 125.673 19.4396C125.986 20.2692 126.142 21.2407 126.142 22.3544V23.3515H115.088V21.1015H122.724C122.724 20.5788 122.611 20.1157 122.384 19.7123C122.156 19.3089 121.841 18.9936 121.438 18.7663C121.04 18.5334 120.577 18.4169 120.048 18.4169C119.497 18.4169 119.009 18.5447 118.582 18.8004C118.162 19.0504 117.832 19.3885 117.594 19.8146C117.355 20.2351 117.233 20.7038 117.227 21.2209V23.3601C117.227 24.0078 117.347 24.5674 117.585 25.039C117.83 25.5106 118.173 25.8743 118.616 26.1299C119.06 26.3856 119.585 26.5135 120.193 26.5135C120.597 26.5135 120.966 26.4567 121.301 26.343C121.636 26.2294 121.923 26.0589 122.162 25.8317C122.401 25.6044 122.582 25.326 122.707 24.9964L126.065 25.218C125.895 26.0248 125.545 26.7294 125.017 27.3317C124.494 27.9282 123.818 28.3942 122.989 28.7294C122.165 29.0589 121.213 29.2237 120.134 29.2237ZM134.134 28.968V11.5135H137.825V18.7152H145.316V11.5135H148.998V28.968H145.316V21.7578H137.825V28.968H134.134ZM151.972 28.968V15.8771H155.603V28.968H151.972ZM153.796 14.1896C153.256 14.1896 152.793 14.0106 152.407 13.6527C152.026 13.289 151.836 12.8544 151.836 12.3487C151.836 11.8487 152.026 11.4197 152.407 11.0618C152.793 10.6981 153.256 10.5163 153.796 10.5163C154.336 10.5163 154.796 10.6981 155.177 11.0618C155.563 11.4197 155.756 11.8487 155.756 12.3487C155.756 12.8544 155.563 13.289 155.177 13.6527C154.796 14.0106 154.336 14.1896 153.796 14.1896ZM162.142 11.5135V28.968H158.511V11.5135H162.142ZM168.681 11.5135V28.968H165.05V11.5135H168.681Z" fill="white"/>
</svg>
