<svg width="200" height="73" viewBox="0 0 200 73" fill="none" xmlns="http://www.w3.org/2000/svg">
<g opacity="0.6">
<g opacity="0.4">
<path d="M81.144 49.2043V22.4038H75.2096V49.2043H81.144Z" fill="white"/>
<path d="M94.9294 49.7786C98.5667 49.7786 101.553 48.2854 103.314 45.7203C104.424 44.0739 105.037 42.0448 105.037 39.7093C105.037 37.3738 104.424 35.3446 103.314 33.6983C101.553 31.1331 98.5667 29.64 94.9294 29.64C91.2922 29.64 88.3442 31.1331 86.583 33.6983C85.4727 35.3446 84.8601 37.3738 84.8601 39.7093C84.8601 42.0448 85.4727 44.0739 86.583 45.7203C88.3442 48.2854 91.2922 49.7786 94.9294 49.7786ZM94.9294 44.6099C93.5894 44.6099 92.4408 43.9974 91.7134 42.9253C91.1774 42.1213 90.8328 41.011 90.8328 39.7093C90.8328 38.4076 91.1774 37.2972 91.7134 36.4932C92.4408 35.4212 93.5894 34.8086 94.9294 34.8086C96.3078 34.8086 97.4181 35.4212 98.1455 36.4932C98.7198 37.2972 99.0261 38.4076 99.0261 39.7093C99.0261 41.011 98.7198 42.1213 98.1455 42.9253C97.4181 43.9974 96.3078 44.6099 94.9294 44.6099Z" fill="white"/>
<path d="M116.941 49.7786C122.186 49.7786 125.823 46.9837 126.053 41.8916H120.157C119.889 43.6528 118.779 44.6099 116.979 44.6099C115.792 44.6099 114.835 44.1122 114.184 43.1933C113.61 42.351 113.304 41.2025 113.304 39.7859C113.304 38.2927 113.648 37.1824 114.222 36.3018C114.912 35.3446 115.907 34.8086 117.171 34.8086C119.008 34.8086 120.195 35.7658 120.501 37.5653H126.359C126.168 32.5114 122.454 29.64 117.171 29.64C113.648 29.64 110.815 30.9417 109.13 33.3537C107.982 35.0001 107.331 37.1824 107.331 39.7859C107.331 42.351 107.944 44.4568 109.092 46.1031C110.738 48.5152 113.495 49.7786 116.941 49.7786Z" fill="white"/>
<path d="M136.035 49.7786C139.059 49.7786 141.088 47.9026 142.16 44.1888H142.926L141.471 49.2043H147.444V30.2143H141.471V40.1304C141.471 42.7722 140.246 44.3419 138.217 44.3419C136.456 44.3419 135.575 43.2316 135.575 41.0876V30.2143H129.564V42.351C129.564 47.2134 131.747 49.7786 136.035 49.7786Z" fill="white"/>
<path d="M159.382 49.7786C162.331 49.7786 164.513 48.9746 165.891 47.5963C166.887 46.6008 167.423 45.3374 167.423 43.6911C167.423 40.4367 165.7 38.6756 161.68 37.7567L159.191 37.2207C157.698 36.8761 157.124 36.3784 157.124 35.5361C157.124 35.1149 157.277 34.7703 157.506 34.5023C157.928 34.1195 158.54 33.928 159.459 33.928C161.144 33.928 162.139 34.7321 162.139 36.2252V36.4167H167.652V36.2252C167.652 32.1286 164.743 29.6783 159.65 29.6783C156.702 29.6783 154.482 30.444 153.065 31.8223C152.07 32.8177 151.572 34.1195 151.572 35.6509C151.572 38.7904 153.295 40.6664 156.626 41.3939L159.842 42.1213C161.259 42.3893 161.795 42.9636 161.795 43.8442C161.795 44.3037 161.641 44.6482 161.373 44.9162C160.991 45.2991 160.34 45.4905 159.459 45.4905C157.774 45.4905 156.817 44.7248 156.817 43.2699V43.0785H151.304V43.2699C151.304 47.4049 154.252 49.7786 159.382 49.7786Z" fill="white"/>
<path d="M45.6621 22.2219L45.6621 35.5389H30.3475L45.6621 22.2219Z" fill="white"/>
<path d="M60.9757 22.2214L60.9757 35.5384H45.6611L60.9757 22.2214Z" fill="white"/>
<path d="M45.6612 35.5386L45.6612 48.8556H30.3467L45.6612 35.5386Z" fill="white"/>
<path d="M60.9757 35.5386L60.9757 48.8556H45.6611L60.9757 35.5386Z" fill="white"/>
</g>
</g>
</svg>
