<svg width="20" height="20" viewBox="0 0 20 20" fill="none" xmlns="http://www.w3.org/2000/svg">
<g clip-path="url(#clip0_152_15)">
<path fill-rule="evenodd" clip-rule="evenodd" d="M10.6973 8.76003C10.3915 9.30385 9.60852 9.30385 9.3027 8.76003L5.04686 1.19213C4.74696 0.658851 5.13234 7.97602e-07 5.74416 5.67316e-07L14.2558 0C14.8677 -5.34872e-08 15.253 0.658849 14.9531 1.19213L10.6973 8.76003ZM8.76003 10.6973C9.30385 10.3915 9.30385 9.60851 8.76003 9.30269L1.19213 5.04685C0.65885 4.74696 3.988e-07 5.13233 3.7206e-07 5.74415L0 14.2558C-2.674e-08 14.8677 0.658851 15.253 1.19213 14.9531L8.76003 10.6973ZM10.6973 11.24C10.3915 10.6961 9.60852 10.6962 9.3027 11.24L5.04686 18.8079C4.74697 19.3412 5.13234 20 5.74416 20H14.2558C14.8677 20 15.253 19.3411 14.9531 18.8079L10.6973 11.24ZM11.24 9.3027C10.6961 9.60853 10.6961 10.3915 11.24 10.6973L18.8079 14.9531C19.3412 15.253 20 14.8677 20 14.2558V5.74417C20 5.13235 19.3411 4.74697 18.8079 5.04687L11.24 9.3027Z" fill="white"/>
</g>
<defs>
<clipPath id="clip0_152_15">
<rect width="20" height="20" fill="white"/>
</clipPath>
</defs>
</svg>
