<svg width="200" height="73" viewBox="0 0 200 73" fill="none" xmlns="http://www.w3.org/2000/svg">
<g opacity="0.6" clip-path="url(#clip0_108_865)">
<path d="M70.0221 25.755C71.7631 25.755 73.2745 26.042 74.5563 26.6159C75.8573 27.1899 76.8522 28.0125 77.5409 29.0839C78.2296 30.1553 78.574 31.4276 78.574 32.9007C78.574 34.3548 78.2296 35.627 77.5409 36.7176C76.8522 37.7889 75.8573 38.6116 74.5563 39.1856C73.2745 39.7595 71.7631 40.0465 70.0221 40.0465H65.4878V45.8435H61.7571V25.755H70.0221ZM69.8499 36.8897C71.4761 36.8897 72.7101 36.5454 73.5519 35.8566C74.3937 35.1679 74.8146 34.1826 74.8146 32.9007C74.8146 31.6189 74.3937 30.6336 73.5519 29.9449C72.7101 29.2561 71.4761 28.9117 69.8499 28.9117H65.4878V36.8897H69.8499Z" fill="white" fill-opacity="0.4"/>
<path d="M88.0692 46.0444C86.5195 46.0444 85.1229 45.7096 83.8793 45.0399C82.6357 44.3703 81.66 43.4424 80.9521 42.2563C80.2634 41.0509 79.919 39.6926 79.919 38.1812C79.919 36.6697 80.2634 35.3209 80.9521 34.1348C81.66 32.9486 82.6357 32.0207 83.8793 31.3511C85.1229 30.6814 86.5195 30.3466 88.0692 30.3466C89.638 30.3466 91.0442 30.6814 92.2878 31.3511C93.5314 32.0207 94.4975 32.9486 95.1863 34.1348C95.8942 35.3209 96.2481 36.6697 96.2481 38.1812C96.2481 39.6926 95.8942 41.0509 95.1863 42.2563C94.4975 43.4424 93.5314 44.3703 92.2878 45.0399C91.0442 45.7096 89.638 46.0444 88.0692 46.0444ZM88.0692 42.9737C89.3893 42.9737 90.4798 42.5337 91.3408 41.6536C92.2017 40.7735 92.6322 39.616 92.6322 38.1812C92.6322 36.7463 92.2017 35.5888 91.3408 34.7087C90.4798 33.8286 89.3893 33.3886 88.0692 33.3886C86.7491 33.3886 85.6586 33.8286 84.7976 34.7087C83.9558 35.5888 83.5349 36.7463 83.5349 38.1812C83.5349 39.616 83.9558 40.7735 84.7976 41.6536C85.6586 42.5337 86.7491 42.9737 88.0692 42.9737Z" fill="white" fill-opacity="0.4"/>
<path d="M107.455 30.3466C108.948 30.3466 110.277 30.6719 111.444 31.3224C112.631 31.9728 113.559 32.8912 114.228 34.0774C114.898 35.2635 115.233 36.6315 115.233 38.1812C115.233 39.7308 114.898 41.1083 114.228 42.3136C113.559 43.4998 112.631 44.4182 111.444 45.0686C110.277 45.7191 108.948 46.0444 107.455 46.0444C105.389 46.0444 103.753 45.3556 102.548 43.9781V51.4109H98.9609V30.5188H102.376V32.5277C102.969 31.8007 103.696 31.2554 104.557 30.8919C105.437 30.5284 106.403 30.3466 107.455 30.3466ZM107.054 42.9737C108.374 42.9737 109.455 42.5337 110.297 41.6536C111.158 40.7735 111.588 39.616 111.588 38.1812C111.588 36.7463 111.158 35.5888 110.297 34.7087C109.455 33.8286 108.374 33.3886 107.054 33.3886C106.193 33.3886 105.418 33.5895 104.729 33.9913C104.04 34.3739 103.495 34.9287 103.093 35.6557C102.692 36.3828 102.491 37.2246 102.491 38.1812C102.491 39.1377 102.692 39.9796 103.093 40.7066C103.495 41.4336 104.04 41.998 104.729 42.3997C105.418 42.7824 106.193 42.9737 107.054 42.9737Z" fill="white" fill-opacity="0.4"/>
<path d="M126.412 30.3466C127.904 30.3466 129.234 30.6719 130.401 31.3224C131.587 31.9728 132.515 32.8912 133.184 34.0774C133.854 35.2635 134.189 36.6315 134.189 38.1812C134.189 39.7308 133.854 41.1083 133.184 42.3136C132.515 43.4998 131.587 44.4182 130.401 45.0686C129.234 45.7191 127.904 46.0444 126.412 46.0444C124.346 46.0444 122.71 45.3556 121.504 43.9781V51.4109H117.917V30.5188H121.332V32.5277C121.925 31.8007 122.652 31.2554 123.513 30.8919C124.393 30.5284 125.36 30.3466 126.412 30.3466ZM126.01 42.9737C127.33 42.9737 128.411 42.5337 129.253 41.6536C130.114 40.7735 130.544 39.616 130.544 38.1812C130.544 36.7463 130.114 35.5888 129.253 34.7087C128.411 33.8286 127.33 33.3886 126.01 33.3886C125.149 33.3886 124.374 33.5895 123.685 33.9913C122.997 34.3739 122.451 34.9287 122.05 35.6557C121.648 36.3828 121.447 37.2246 121.447 38.1812C121.447 39.1377 121.648 39.9796 122.05 40.7066C122.451 41.4336 122.997 41.998 123.685 42.3997C124.374 42.7824 125.149 42.9737 126.01 42.9737Z" fill="white" fill-opacity="0.4"/>
<path d="M144.163 43.0024C145.827 43.0024 147.214 42.4476 148.324 41.3379L150.218 43.5477C149.548 44.3703 148.687 44.9921 147.635 45.413C146.583 45.8339 145.397 46.0444 144.077 46.0444C142.393 46.0444 140.91 45.7096 139.628 45.0399C138.347 44.3703 137.352 43.4424 136.644 42.2563C135.955 41.0509 135.611 39.6926 135.611 38.1812C135.611 36.6889 135.946 35.3496 136.615 34.1635C137.304 32.9581 138.241 32.0207 139.428 31.3511C140.633 30.6814 141.991 30.3466 143.503 30.3466C144.938 30.3466 146.239 30.6623 147.406 31.2937C148.592 31.9059 149.529 32.7955 150.218 33.9626C150.907 35.1105 151.251 36.4593 151.251 38.009L139.514 40.3048C139.877 41.1849 140.461 41.8545 141.264 42.3136C142.068 42.7728 143.034 43.0024 144.163 43.0024ZM143.503 33.2164C142.183 33.2164 141.111 33.6469 140.289 34.5078C139.485 35.3688 139.083 36.5262 139.083 37.9803V38.009L147.75 36.3445C147.501 35.407 146.994 34.6513 146.229 34.0774C145.483 33.5034 144.574 33.2164 143.503 33.2164Z" fill="white" fill-opacity="0.4"/>
<path d="M157.395 32.7573C158.428 31.1502 160.246 30.3466 162.848 30.3466V33.7617C162.542 33.7043 162.264 33.6756 162.016 33.6756C160.619 33.6756 159.528 34.0869 158.744 34.9096C157.96 35.7131 157.567 36.8802 157.567 38.4107V45.8435H153.98V30.5188H157.395V32.7573Z" fill="white" fill-opacity="0.4"/>
<path d="M169.965 46.0444C168.721 46.0444 167.506 45.8817 166.32 45.5565C165.134 45.2313 164.187 44.8199 163.479 44.3225L164.856 41.5962C165.545 42.0554 166.368 42.4284 167.324 42.7154C168.3 42.9833 169.257 43.1172 170.194 43.1172C172.337 43.1172 173.408 42.5528 173.408 41.424C173.408 40.8883 173.131 40.5152 172.576 40.3048C172.04 40.0943 171.17 39.8935 169.965 39.7021C168.702 39.5108 167.669 39.2908 166.865 39.0421C166.081 38.7934 165.392 38.3629 164.799 37.7507C164.225 37.1193 163.938 36.2488 163.938 35.1392C163.938 33.6852 164.541 32.5277 165.746 31.6667C166.97 30.7867 168.616 30.3466 170.682 30.3466C171.734 30.3466 172.787 30.471 173.839 30.7197C174.891 30.9493 175.752 31.265 176.422 31.6667L175.044 34.393C173.743 33.6278 172.28 33.2451 170.653 33.2451C169.601 33.2451 168.798 33.4077 168.243 33.733C167.707 34.0391 167.439 34.4504 167.439 34.967C167.439 35.541 167.726 35.9523 168.3 36.201C168.893 36.4306 169.802 36.6506 171.026 36.8611C172.251 37.0524 173.255 37.2724 174.04 37.5211C174.824 37.7698 175.494 38.1907 176.049 38.7838C176.622 39.3769 176.909 40.2187 176.909 41.3092C176.909 42.7441 176.288 43.892 175.044 44.753C173.801 45.6139 172.107 46.0444 169.965 46.0444Z" fill="white" fill-opacity="0.4"/>
<path d="M38.3967 20.5894C34.3374 20.5894 30.4444 22.2019 27.5741 25.0722C24.7037 27.9426 23.0912 31.8356 23.0912 35.8949C23.0912 39.9542 24.7037 43.8472 27.5741 46.7175C30.4444 49.5879 34.3374 51.2004 38.3967 51.2004L38.3967 35.8949L38.3967 20.5894Z" fill="white" fill-opacity="0.4"/>
<path d="M50.641 25.9463C48.0025 25.9463 45.472 26.9944 43.6063 28.8601C41.7406 30.7259 40.6924 33.2563 40.6924 35.8949C40.6924 38.5334 41.7406 41.0638 43.6063 42.9296C45.472 44.7953 48.0025 45.8434 50.641 45.8434L50.641 35.8949L50.641 25.9463Z" fill="white" fill-opacity="0.4"/>
</g>
<defs>
<clipPath id="clip0_108_865">
<rect width="200" height="72.3926" fill="white"/>
</clipPath>
</defs>
</svg>
