<svg width="200" height="73" viewBox="0 0 200 73" fill="none" xmlns="http://www.w3.org/2000/svg">
<g opacity="0.6" clip-path="url(#clip0_108_816)">
<path d="M39.8666 56.7306H26.4037L39.8666 36.372H53.3296L39.8666 56.7306Z" fill="#787878"/>
<path d="M34.9408 15.3572H48.732L34.9408 36.3723H21.1495L34.9408 15.3572Z" fill="#787878"/>
<path d="M80.795 33.0675C80.795 34.3158 80.494 35.4864 79.8919 36.579C79.3123 37.6712 78.3872 38.5518 77.1165 39.2209C75.8678 39.8895 74.2851 40.224 72.3678 40.224H68.4548V49.1863H63.7731V25.8441H72.3678C74.1736 25.8441 75.7118 26.1562 76.9825 26.7804C78.2536 27.4047 79.2008 28.263 79.8253 29.3554C80.4719 30.4478 80.795 31.6852 80.795 33.0675ZM72.1668 36.445C73.46 36.445 74.4186 36.1554 75.0431 35.5754C75.6673 34.9738 75.9793 34.1377 75.9793 33.0675C75.9793 30.7934 74.7086 29.6564 72.1668 29.6564H68.4548V36.445H72.1668Z" fill="#787878"/>
<path d="M87.4629 33.5359C88.065 32.5549 88.8451 31.7858 89.8038 31.2284C90.7849 30.6711 91.8996 30.3924 93.1482 30.3924V35.3082H91.9106C90.4393 35.3082 89.3247 35.6537 88.5666 36.3452C87.8309 37.0363 87.4629 38.24 87.4629 39.9567V49.1866H82.7812V30.6599H87.4629V33.5359Z" fill="#787878"/>
<path d="M103.191 49.4873C101.407 49.4873 99.802 49.0972 98.3753 48.3171C96.9486 47.5145 95.8225 46.3884 94.9978 44.9392C94.1952 43.49 93.7937 41.8182 93.7937 39.923C93.7937 38.0282 94.2062 36.356 95.0313 34.9068C95.8784 33.4576 97.0266 32.3429 98.4758 31.5626C99.925 30.76 101.541 30.3587 103.325 30.3587C105.108 30.3587 106.724 30.76 108.174 31.5626C109.623 32.3429 110.76 33.4576 111.585 34.9068C112.432 36.356 112.856 38.0282 112.856 39.923C112.856 41.8182 112.421 43.49 111.552 44.9392C110.704 46.3884 109.545 47.5145 108.074 48.3171C106.624 49.0972 104.997 49.4873 103.191 49.4873ZM103.191 45.4073C104.038 45.4073 104.83 45.2067 105.565 44.8056C106.323 44.3821 106.925 43.7576 107.371 42.9329C107.817 42.1078 108.04 41.1046 108.04 39.923C108.04 38.1617 107.572 36.813 106.635 35.8765C105.721 34.9178 104.596 34.4387 103.258 34.4387C101.92 34.4387 100.794 34.9178 99.8804 35.8765C98.9884 36.813 98.5428 38.1617 98.5428 39.923C98.5428 41.6842 98.9774 43.0444 99.8469 44.003C100.739 44.9392 101.853 45.4073 103.191 45.4073Z" fill="#787878"/>
<path d="M119.633 45.4743H124.661V49.1863H114.951V22.968H119.633V45.4743Z" fill="#787878"/>
<path d="M128.294 28.4525C127.469 28.4525 126.778 28.1961 126.221 27.6833C125.686 27.1483 125.418 26.4906 125.418 25.7103C125.418 24.93 125.686 24.2834 126.221 23.7707C126.778 23.2356 127.469 22.968 128.294 22.968C129.119 22.968 129.799 23.2356 130.334 23.7707C130.891 24.2834 131.17 24.93 131.17 25.7103C131.17 26.4906 130.891 27.1483 130.334 27.6833C129.799 28.1961 129.119 28.4525 128.294 28.4525ZM130.601 30.6597V49.1863H125.92V30.6597H130.601Z" fill="#787878"/>
<path d="M144.156 30.3924C146.363 30.3924 148.146 31.0947 149.506 32.4992C150.866 33.8815 151.546 35.8212 151.546 38.318V49.1866H146.864V38.9536C146.864 37.4819 146.497 36.3562 145.761 35.5757C145.025 34.7731 144.022 34.372 142.751 34.372C141.458 34.372 140.432 34.7731 139.674 35.5757C138.939 36.3562 138.571 37.4819 138.571 38.9536V49.1866H133.889V30.6599H138.571V32.9674C139.195 32.1648 139.987 31.5405 140.945 31.0947C141.926 30.6265 142.996 30.3924 144.156 30.3924Z" fill="#787878"/>
<path d="M171.883 39.522C171.883 40.1906 171.838 40.7927 171.749 41.3278H158.205C158.316 42.6654 158.785 43.7131 159.61 44.4712C160.435 45.2293 161.449 45.6083 162.653 45.6083C164.392 45.6083 165.629 44.8613 166.365 43.3676H171.415C170.88 45.1513 169.854 46.6225 168.338 47.7821C166.822 48.9189 164.96 49.4874 162.753 49.4874C160.97 49.4874 159.364 49.0974 157.938 48.3172C156.533 47.5146 155.429 46.3885 154.627 44.9393C153.847 43.4901 153.456 41.8183 153.456 39.9231C153.456 38.0058 153.847 36.3226 154.627 34.8734C155.407 33.4243 156.5 32.3095 157.904 31.5292C159.309 30.7489 160.925 30.3588 162.753 30.3588C164.514 30.3588 166.086 30.7378 167.469 31.4958C168.873 32.2538 169.954 33.3351 170.713 34.7398C171.493 36.122 171.883 37.7158 171.883 39.522ZM167.034 38.1843C167.012 36.9802 166.577 36.0216 165.729 35.308C164.882 34.5724 163.846 34.2048 162.619 34.2048C161.46 34.2048 160.479 34.5613 159.677 35.2749C158.896 35.966 158.417 36.9357 158.238 38.1843H167.034Z" fill="#787878"/>
</g>
<defs>
<clipPath id="clip0_108_816">
<rect width="200" height="72.3926" fill="white"/>
</clipPath>
</defs>
</svg>
