<svg width="100" height="100" viewBox="0 0 100 100" fill="none" xmlns="http://www.w3.org/2000/svg">
<g clip-path="url(#clip0_111_1250)">
<path d="M27.3958 15.875H72.6042C79.4583 15.875 85 21.4167 85 28.2708V71.7292C85 78.5833 79.4583 84.125 72.6042 84.125H27.3958C20.5417 84.125 15 78.5833 15 71.7292V28.2708C15 21.4167 20.5417 15.875 27.3958 15.875Z" fill="#001E36"/>
<path d="M30.75 63.7375V33.725C30.75 33.5208 30.8375 33.4041 31.0417 33.4041C31.5375 33.4041 32.0042 33.4041 32.675 33.375C33.375 33.3458 34.1042 33.3458 34.8917 33.3166C35.6792 33.2875 36.525 33.2875 37.4292 33.2583C38.3333 33.2291 39.2083 33.2291 40.0833 33.2291C42.475 33.2291 44.4583 33.5208 46.0917 34.1333C47.55 34.6291 48.8917 35.4458 50 36.525C50.9333 37.4583 51.6625 38.5958 52.1292 39.85C52.5667 41.075 52.8 42.3291 52.8 43.6416C52.8 46.15 52.2167 48.2208 51.05 49.8541C49.8833 51.4875 48.25 52.7125 46.3542 53.4125C44.3708 54.1416 42.1833 54.4041 39.7917 54.4041C39.0917 54.4041 38.625 54.4041 38.3333 54.375C38.0417 54.3458 37.6333 54.3458 37.0792 54.3458V63.7083C37.1083 63.9125 36.9625 64.0875 36.7583 64.1166C36.7292 64.1166 36.7 64.1166 36.6417 64.1166H31.1C30.8667 64.1166 30.75 64 30.75 63.7375ZM37.1083 39.0333V48.8333C37.5167 48.8625 37.8958 48.8916 38.2458 48.8916H39.7917C40.9292 48.8916 42.0667 48.7166 43.1458 48.3666C44.0792 48.1041 44.8958 47.55 45.5375 46.8208C46.15 46.0916 46.4417 45.1 46.4417 43.8166C46.4708 42.9125 46.2375 42.0083 45.7708 41.2208C45.275 40.4625 44.575 39.8791 43.7292 39.5583C42.65 39.1208 41.4833 38.9458 40.2875 38.975C39.5292 38.975 38.8583 38.975 38.3042 39.0041C37.7208 38.975 37.3125 39.0041 37.1083 39.0333Z" fill="#31A8FF"/>
<path d="M71 47.0542C70.125 46.5875 69.1917 46.2667 68.2 46.0625C67.1208 45.8292 66.0417 45.6834 64.9333 45.6834C64.35 45.6542 63.7375 45.7417 63.1833 45.8875C62.8042 45.975 62.4833 46.1792 62.2792 46.4709C62.1333 46.7042 62.0458 46.9959 62.0458 47.2584C62.0458 47.5209 62.1625 47.7834 62.3375 48.0167C62.6 48.3375 62.95 48.6 63.3292 48.8042C64 49.1542 64.7 49.475 65.4 49.7667C66.975 50.2917 68.4917 51.0209 69.8917 51.8959C70.8542 52.5084 71.6417 53.325 72.1958 54.3167C72.6625 55.25 72.8958 56.2709 72.8667 57.3209C72.8958 58.6917 72.4875 60.0625 71.7292 61.2C70.9125 62.3667 69.775 63.2709 68.4625 63.7959C67.0333 64.4084 65.2833 64.7292 63.1833 64.7292C61.8417 64.7292 60.5292 64.6125 59.2167 64.35C58.1958 64.175 57.175 63.8542 56.2417 63.4167C56.0375 63.3 55.8917 63.0959 55.9208 62.8625V57.7875C55.9208 57.7 55.95 57.5834 56.0375 57.525C56.125 57.4667 56.2125 57.4959 56.3 57.5542C57.4375 58.225 58.6333 58.6917 59.9167 58.9834C61.025 59.275 62.1917 59.4209 63.3583 59.4209C64.4667 59.4209 65.2542 59.275 65.7792 59.0125C66.2458 58.8084 66.5667 58.3125 66.5667 57.7875C66.5667 57.3792 66.3333 57 65.8667 56.6209C65.4 56.2417 64.4375 55.8042 63.0083 55.25C61.5208 54.725 60.15 54.025 58.8667 53.15C57.9625 52.5084 57.2042 51.6625 56.65 50.6709C56.1833 49.7375 55.95 48.7167 55.9792 47.6959C55.9792 46.4417 56.3292 45.2459 56.9708 44.1667C57.7 43 58.7792 42.0667 60.0333 41.4834C61.4042 40.7834 63.125 40.4625 65.1958 40.4625C66.3917 40.4625 67.6167 40.55 68.8125 40.725C69.6875 40.8417 70.5333 41.075 71.3208 41.3959C71.4375 41.425 71.5542 41.5417 71.6125 41.6584C71.6417 41.775 71.6708 41.8917 71.6708 42.0084V46.7625C71.6708 46.8792 71.6125 46.9959 71.525 47.0542C71.2625 47.1125 71.1167 47.1125 71 47.0542Z" fill="#31A8FF"/>
</g>
<defs>
<clipPath id="clip0_111_1250">
<rect width="70" height="68.25" fill="white" transform="translate(15 15.875)"/>
</clipPath>
</defs>
</svg>
