<svg width="200" height="73" viewBox="0 0 200 73" fill="none" xmlns="http://www.w3.org/2000/svg">
<g opacity="0.6" clip-path="url(#clip0_108_809)">
<path d="M81.4177 47.602C80.9213 47.1764 80.6363 46.7304 80.61 46.2619L81.4177 47.602ZM81.4177 47.602L81.4202 47.6041C81.9601 48.0459 82.7207 48.2566 83.682 48.2566H85.7856H85.9262V48.116V47.8402V47.6996H85.7856H84.7292L84.3625 47.6329L84.3558 47.6316L84.3487 47.6312C84.1301 47.6128 83.8868 47.4647 83.6223 47.1355C83.3937 46.8001 83.2706 46.3165 83.2706 45.6673V34.8727C83.2706 33.7216 82.9765 32.7685 82.3773 32.0254L82.3757 32.0231C81.9835 31.5574 81.3685 31.2131 80.5499 30.979C79.7493 30.7203 78.7104 30.5935 77.4396 30.5935C76.1395 30.5935 74.9475 31.0435 73.8674 31.9357C73.0037 32.6306 72.3541 33.3752 71.9244 34.1705V30.8721V30.7315H71.7834H69.3693H69.2287V30.8721V48.116V48.2566H69.3693H71.7834H71.9244V48.116V35.8729C71.9244 35.0116 72.4759 34.0117 73.6408 32.8694L73.6421 32.8684C74.7919 31.7186 76.079 31.1507 77.5084 31.1507C78.2056 31.1507 78.7801 31.263 79.2382 31.4805C80.1077 31.9489 80.5754 33.038 80.5754 34.8382V45.6673V45.6715V45.6757L80.61 46.2615L81.4177 47.602ZM67.0546 25.5543L67.1844 25.6041L67.2357 25.4752L67.3738 25.1304L67.4293 24.9918L67.2878 24.9447C64.9293 24.1586 62.6037 23.7649 60.3111 23.7649C58.0386 23.7649 56.3084 24.2979 55.1456 25.3889C53.9874 26.4529 53.4108 27.8483 53.4108 29.5616C53.4108 31.7232 54.3074 33.3999 56.0943 34.5759C56.8829 35.1091 57.7515 35.5954 58.6998 36.035L58.7028 36.0362C59.6457 36.4502 60.5773 36.8528 61.4977 37.2439L61.499 37.2444C62.436 37.6331 63.2926 38.0556 64.0678 38.5117C65.7779 39.5242 66.6199 40.9179 66.6199 42.7013C66.6199 44.3352 65.9744 45.5655 64.6832 46.4117C63.3998 47.2448 61.8411 47.665 60.0007 47.665C58.7507 47.665 57.5233 47.4835 56.3184 47.1197C55.1347 46.7325 54.1739 46.2452 53.4316 45.6602L53.3086 45.5635L53.2251 45.6965L53.0528 45.9723L52.9823 46.0854L53.0912 46.1622C55.1189 47.5836 57.5625 48.2912 60.4146 48.2912C61.942 48.2912 63.2788 48.1177 64.422 47.7676L64.4236 47.7672C65.6015 47.3904 66.6015 46.6833 67.4222 45.6515C68.2487 44.6126 68.6601 43.3622 68.6601 41.9083C68.6601 40.4458 68.4164 39.2373 67.9199 38.2911C67.4276 37.3304 66.7805 36.5758 65.9769 36.0322C65.1876 35.4983 64.3181 35.023 63.3681 34.606C62.4227 34.1909 61.4768 33.8218 60.531 33.4987C59.6165 33.1557 58.7716 32.7903 57.9956 32.4024C56.2854 31.5019 55.451 30.2459 55.451 28.6304C55.451 27.2917 55.9504 26.254 56.9471 25.5008C57.9489 24.7438 59.352 24.3566 61.1735 24.3566C63.0151 24.3566 64.9756 24.7545 67.0546 25.5543ZM86.663 33.0143L86.6626 33.0151C85.0663 34.6349 84.2769 36.9047 84.2769 39.8045C84.2769 42.7018 85.0421 44.8734 86.5992 46.289C88.147 47.6959 90.1484 48.3947 92.5912 48.3947C95.0616 48.3947 97.0993 47.589 98.6918 45.9736C100.311 44.3539 101.112 42.0839 101.112 39.1837C101.112 36.2865 100.347 34.1148 98.7902 32.6994C97.242 31.292 95.2289 30.5935 92.7635 30.5935C90.3153 30.5935 88.278 31.3994 86.663 33.0143ZM88.5997 33.4394L88.6006 33.4386C89.727 31.9066 91.1352 31.1507 92.8324 31.1507C94.5384 31.1507 95.8998 31.7989 96.9299 33.0978C97.9587 34.395 98.4857 36.4148 98.4857 39.1837C98.4857 41.9247 97.9145 44.0527 96.7893 45.5835C95.6632 47.0926 94.2547 47.8377 92.5566 47.8377C90.851 47.8377 89.4892 47.1893 88.4591 45.8906C87.4303 44.593 86.9033 42.5846 86.9033 39.839C86.9033 37.0742 87.4749 34.9468 88.5997 33.4394ZM124.61 30.9796L124.508 31.0823L124.613 31.1817C124.945 31.4921 125.121 31.9555 125.121 32.5965C125.121 33.2437 124.987 33.7934 124.725 34.2511L124.722 34.2564L124.72 34.262L119.861 44.7833L114.702 30.8234L114.668 30.7315H114.57H112.156H111.955L112.024 30.9205L113.28 34.3493L108.48 44.7828L103.321 30.8234L103.287 30.7315H103.189H100.775H100.573L100.643 30.9212L107.058 48.1652L107.092 48.2566H107.19H107.535H107.625L107.663 48.1744L113.591 35.1377L118.439 48.1652L118.473 48.2566H118.571H118.916H119.006L119.044 48.1744L125.321 34.3792L125.322 34.3763C125.604 33.7173 125.747 33.0662 125.747 32.4241C125.747 32.2522 125.723 32.0709 125.676 31.8806C125.647 31.669 125.543 31.4446 125.38 31.2094C125.309 31.0928 125.243 30.9956 125.18 30.92C125.118 30.8456 125.051 30.7822 124.979 30.7463L124.889 30.701L124.817 30.7726L124.61 30.9796Z" fill="#787878" stroke="#787878" stroke-width="0.281329"/>
<path d="M131.089 24.2236C131.737 23.2315 132.786 22.4629 134.244 22.3949L133.939 45.907V45.9087C133.939 46.1215 134.005 46.3501 134.126 46.5925C134.693 47.7252 136.044 48.2564 138.08 48.2564H139.149H139.29V48.1158V47.84V47.6994H139.149H138.093L137.726 47.6326L137.719 47.6314L137.713 47.6309C137.494 47.6126 137.251 47.4645 136.986 47.1353C136.757 46.7999 136.635 46.3163 136.635 45.6671V22.2844V22.146L136.496 22.1437L134.388 22.1092L134.247 22.1069L134.247 22.1111C131.887 22.1536 130.142 22.7086 129.045 23.8053C127.924 24.9024 127.382 26.731 127.382 29.2509V30.7312H126.799H126.658V30.8719V31.4291V31.5698H126.799H127.382V48.1158V48.2564H127.523H129.937H130.078V48.1158V31.5698H132.662H132.802V31.4291V30.8719V30.7312H132.662H130.078V29.2509C130.078 26.8893 130.423 25.2234 131.089 24.2248L131.089 24.2236ZM149.454 39.6856C148.984 39.6479 148.467 39.6291 147.905 39.6291C147.28 39.6291 146.597 39.6638 145.859 39.733C144.372 39.8253 143.141 39.9986 142.17 40.2545C141.2 40.51 140.476 40.8512 140.014 41.2886C139.569 41.7095 139.283 42.1107 139.181 42.4926C139.087 42.8471 139.039 43.1813 139.039 43.4947C139.039 43.7779 139.062 44.0612 139.109 44.3441C139.309 45.6796 139.831 46.6985 140.687 47.381C141.542 48.0623 142.711 48.3945 144.18 48.3945C145.441 48.3945 146.538 48.1345 147.466 47.6088C148.257 47.1599 148.92 46.5207 149.454 45.6946V45.9087C149.454 46.3384 149.757 46.8103 150.289 47.3189C150.906 47.9589 152.026 48.2564 153.595 48.2564H154.664H154.805V48.1158V47.84V47.6994H154.664H153.608L153.241 47.6326L153.235 47.6314L153.227 47.6309C153.009 47.6126 152.766 47.4645 152.501 47.1353C152.272 46.7999 152.149 46.3163 152.149 45.6671V34.1138C152.149 33.3363 151.833 32.603 151.217 31.9164C150.813 31.4638 150.205 31.1342 149.407 30.9172C148.61 30.7001 147.613 30.5933 146.422 30.5933C144.285 30.5933 142.184 31.0696 140.121 32.0202L139.981 32.0844L140.058 32.2177L140.195 32.4591L140.265 32.5807L140.387 32.5118C140.899 32.222 141.713 31.9267 142.837 31.6286L142.838 31.6281C143.98 31.3084 144.967 31.1505 145.801 31.1505C146.641 31.1505 147.31 31.2643 147.814 31.4837V31.4838L147.819 31.4857C148.335 31.6877 148.674 31.9272 148.858 32.1935C149.059 32.4829 149.214 32.7824 149.324 33.0919L149.326 33.0979L149.329 33.1036C149.46 33.3881 149.494 33.6071 149.458 33.7712C149.434 33.8659 149.419 33.9503 149.419 34.0189C149.419 34.0533 149.423 34.0923 149.437 34.1295C149.441 34.1415 149.447 34.154 149.454 34.1664V39.6856ZM141.803 44.3103L141.802 44.3082C141.78 44.0817 141.769 43.8797 141.769 43.7016C141.769 42.7145 142.026 41.9589 142.525 41.417C142.767 41.1537 143.159 40.9221 143.717 40.7306C144.274 40.5395 144.984 40.3917 145.851 40.2889C146.467 40.2205 147.083 40.1864 147.698 40.1864C148.293 40.1864 148.879 40.2061 149.454 40.2457V44.2815C149.388 45.0071 148.892 45.7902 147.917 46.6296C146.975 47.4365 145.915 47.8375 144.732 47.8375C143.847 47.8375 143.173 47.5458 142.693 46.9734C142.207 46.3956 141.905 45.5144 141.803 44.3103ZM157.738 22.2499V22.1092H157.597H155.183H155.042V22.2499V48.1158V48.2564H155.183H157.597H157.738V48.1158V39.8569L158.514 38.9651L164.792 48.195L164.834 48.2564H164.908H167.322H167.588L167.439 48.0369L160.085 37.229L165.634 30.9652L165.842 30.7312H165.529H165.184H165.121L165.079 30.7785L157.738 39.0544V22.2499ZM180.85 46.8879L180.796 46.7636L180.67 46.812C178.895 47.4945 176.867 47.8375 174.581 47.8375C172.995 47.8375 171.714 47.1925 170.728 45.8932C169.766 44.5957 169.273 42.5406 169.273 39.7008C169.273 39.0836 169.303 38.4868 169.362 37.9102H181.548H181.689V37.7695V37.7688V37.7681V37.7675V37.7668V37.7661V37.7654V37.7648V37.7641V37.7634V37.7628V37.7621V37.7614V37.7607V37.76V37.7594V37.7587V37.758V37.7574V37.7567V37.756V37.7553V37.7547V37.754V37.7533V37.7527V37.752V37.7513V37.7506V37.75V37.7493V37.7486V37.7479V37.7472V37.7466V37.7459V37.7452V37.7446V37.7439V37.7432V37.7425V37.7419V37.7412V37.7405V37.7399V37.7392V37.7385V37.7378V37.7371V37.7365V37.7358V37.7351V37.7345V37.7338V37.7331V37.7324V37.7318V37.7311V37.7304V37.7298V37.729V37.7284V37.7277V37.727V37.7264V37.7257V37.725V37.7243V37.7237V37.723V37.7223V37.7217V37.721V37.7203V37.7196V37.719V37.7183V37.7176V37.7169V37.7163V37.7156V37.7149V37.7142V37.7136V37.7129V37.7122V37.7116V37.7109V37.7102V37.7095V37.7089V37.7082V37.7075V37.7069V37.7062V37.7055V37.7048V37.7041V37.7035V37.7028V37.7021V37.7015V37.7008V37.7001V37.6994V37.6988V37.6981V37.6974V37.6968V37.696V37.6954V37.6947V37.694V37.6934V37.6927V37.692V37.6913V37.6907V37.69V37.6893V37.6887V37.688V37.6873V37.6866V37.686V37.6853V37.6846V37.6839V37.6833V37.6826V37.6819V37.6812V37.6806V37.6799V37.6792V37.6786V37.6779V37.6772V37.6765V37.6759V37.6752V37.6745V37.6739V37.6731V37.6725V37.6718V37.6711V37.6705V37.6698V37.6691V37.6684V37.6678V37.6671V37.6664V37.6658V37.6651V37.6644V37.6637V37.663V37.6624V37.6617V37.661V37.6604V37.6597V37.659V37.6583V37.6577V37.657V37.6563V37.6557V37.655V37.6543V37.6536V37.6529V37.6523V37.6516V37.6509V37.6503V37.6496V37.6489V37.6482V37.6476V37.6469V37.6462V37.6456V37.6449V37.6442V37.6435V37.6429V37.6422V37.6415V37.6408V37.6401V37.6395V37.6388V37.6381V37.6375V37.6368V37.6361V37.6354V37.6348V37.6341V37.6334V37.6328V37.6321V37.6314V37.6307V37.63V37.6294V37.6287V37.628V37.6274V37.6267V37.626V37.6253V37.6247V37.624V37.6233V37.6227V37.6219V37.6213V37.6206V37.6199V37.6193V37.6186V37.6179V37.6172V37.6166V37.6159V37.6152V37.6146V37.6139V37.6132V37.6125V37.6119V37.6112V37.6105V37.6098V37.6092V37.6085V37.6078V37.6071V37.6065V37.6058V37.6051V37.6045V37.6038V37.6031V37.6024V37.6018V37.6011V37.6004V37.5998V37.5991V37.5984V37.5977V37.597V37.5964V37.5957V37.595V37.5944V37.5937V37.593V37.5923V37.5917V37.591V37.5903V37.5897V37.5889V37.5883V37.5876V37.5869V37.5863V37.5856V37.5849V37.5842V37.5836V37.5829V37.5822V37.5816V37.5809V37.5802V37.5795V37.5789V37.5782V37.5775V37.5768V37.5762V37.5755V37.5748V37.5741V37.5735V37.5728V37.5721V37.5715V37.5708V37.5701V37.5694V37.5688V37.5681V37.5674V37.5668V37.566V37.5654V37.5647V37.564V37.5634V37.5627V37.562V37.5613V37.5607V37.56V37.5593V37.5587V37.558V37.5573V37.5566V37.5559V37.5553V37.5546V37.5539V37.5533V37.5526V37.5519V37.5512V37.5506V37.5499V37.5492V37.5486V37.5479V37.5472V37.5465V37.5458V37.5452V37.5445V37.5438V37.5432V37.5425V37.5418V37.5411V37.5405V37.5398V37.5391V37.5385V37.5378V37.5371V37.5364V37.5358V37.5351V37.5344V37.5337V37.533V37.5324V37.5317V37.531V37.5304V37.5297V37.529V37.5283V37.5277V37.527V37.5263V37.5257V37.525V37.5243V37.5236V37.5229V37.5223V37.5216V37.5209V37.5203V37.5196V37.5189V37.5182V37.5176V37.5169V37.5162V37.5156V37.5148V37.5142V37.5135V37.5128V37.5122V37.5115V37.5108V37.5101V37.5095V37.5088V37.5081V37.5075V37.5068V37.5061V37.5054V37.5048V37.5041V37.5034V37.5027V37.5021V37.5014V37.5007V37.5V37.4994V37.4987V37.498V37.4974V37.4967V37.496V37.4953V37.4947V37.494V37.4933V37.4927V37.492V37.4913V37.4906V37.4899V37.4893V37.4886V37.4879V37.4872V37.4866V37.4859V37.4852V37.4846V37.4839V37.4832V37.4825V37.4818V37.4812V37.4805V37.4798V37.4792V37.4785V37.4778V37.4771V37.4765V37.4758V37.4751V37.4745V37.4738V37.4731V37.4724V37.4717V37.4711V37.4704V37.4697V37.4691V37.4684V37.4677V37.467V37.4664V37.4657V37.465V37.4644V37.4637V37.463V37.4623V37.4617V37.461V37.4603V37.4597V37.4589V37.4583V37.4576V37.4569V37.4563V37.4556V37.4549V37.4542V37.4536V37.4529V37.4522V37.4516V37.4509V37.4502V37.4495V37.4488V37.4482V37.4475V37.4468V37.4462V37.4455V37.4448V37.4441V37.4435V37.4428V37.4421V37.4415V37.4408V37.4401V37.4394V37.4388V37.4381V37.4374V37.4367V37.436V37.4354V37.4347V37.434V37.4334V37.4327V37.432V37.4313V37.4307V37.43V37.4293V37.4287V37.428V37.4273V37.4266V37.4259V37.4253V37.4246C181.689 35.1894 181.036 33.4786 179.709 32.318C178.394 31.1666 176.773 30.5933 174.858 30.5933C172.477 30.5933 170.508 31.4002 168.962 33.0164C167.412 34.6363 166.646 36.9056 166.646 39.8043C166.646 42.6999 167.376 44.8706 168.863 46.2863C170.342 47.6948 172.252 48.3945 174.581 48.3945C176.918 48.3945 179.016 48.0361 180.875 47.3159L181.01 47.2634L180.953 47.1295L180.85 46.8879ZM177.816 32.683C178.598 33.6828 179.021 35.2315 179.06 37.3529H169.433C169.717 35.4252 170.345 33.9206 171.307 32.8277C172.32 31.7023 173.456 31.1505 174.72 31.1505C175.985 31.1505 177.014 31.6584 177.816 32.683Z" fill="#787878" stroke="#787878" stroke-width="0.281329"/>
<path d="M184.731 21.8883V22.7994H183.695V25.5715H182.711V22.7994H181.675V21.8883H184.731Z" fill="#787878"/>
<path d="M188.768 21.8329V25.5878H187.785V23.7656L187.064 24.6215H186.77L186.05 23.7656V25.5878H185.066V21.8329H185.413L186.917 23.4343L188.421 21.8329H188.768Z" fill="#787878"/>
<path fill-rule="evenodd" clip-rule="evenodd" d="M26.2537 42.1168L26.2387 53.9585L28.742 53.9618L28.7571 42.0647L33.3237 53.0506L35.6351 52.0898L31.1 41.1793L39.4439 49.5448L41.2162 47.7766L32.8365 39.3756L43.7963 43.924L44.7555 41.6118L33.7947 37.0629H45.6621V34.5596H33.8231L44.7659 30.0403L43.8101 27.7265L32.9143 32.2265L41.2926 23.9338L39.5319 22.1546L31.0494 30.5502L35.6205 19.5255L33.3079 18.5667L28.773 29.5044L28.788 17.6639L26.2847 17.6607L26.2696 29.5589L21.7026 18.5721L19.3911 19.533L23.9259 30.4423L15.5825 22.0777L13.8102 23.8456L22.1902 32.2469L11.2303 27.6983L10.2707 30.0104L21.2322 34.5596H9.3642V37.0629H21.204L10.2609 41.5824L11.2165 43.8961L22.1119 39.3964L13.7337 47.689L15.4947 49.468L23.9766 41.0728L19.4059 52.0969L21.7183 53.0557L26.2537 42.1168Z" fill="#787878"/>
</g>
<defs>
<clipPath id="clip0_108_809">
<rect width="200" height="72.3926" fill="white"/>
</clipPath>
</defs>
</svg>
